<svg width="77" height="93" viewBox="0 0 77 93" fill="none" xmlns="http://www.w3.org/2000/svg">
<path d="M65.4617 92.9155H11.5372C9.86554 92.9146 8.21404 92.4926 6.69687 91.6787C5.1797 90.8648 3.83306 89.6784 2.75006 88.2017C1.66707 86.7249 0.873575 84.993 0.424442 83.1256C-0.0246917 81.2582 -0.118744 79.3 0.148791 77.3864L1.98329 64.2871C2.03379 63.924 2.17567 63.5863 2.39111 63.3164C2.60655 63.0465 2.88594 62.8565 3.19421 62.7702C3.50247 62.6838 3.82586 62.7051 4.12376 62.8312C4.42166 62.9573 4.68078 63.1827 4.8686 63.479C5.63325 64.6969 6.6368 65.6863 7.79634 66.3655C8.95588 67.0447 10.2381 67.3942 11.5372 67.3851H29.5442C29.971 67.3851 30.3803 67.5817 30.6821 67.9317C30.9839 68.2817 31.1534 68.7564 31.1534 69.2513V73.2265H45.8455V69.2513C45.8455 68.7564 46.015 68.2817 46.3168 67.9317C46.6186 67.5817 47.0279 67.3851 47.4547 67.3851H65.4617C66.7607 67.3949 68.0431 67.0462 69.203 66.3676C70.3628 65.6891 71.3668 64.7002 72.1319 63.4827C72.3197 63.1864 72.5788 62.961 72.8767 62.8349C73.1746 62.7088 73.498 62.6876 73.8063 62.7739C74.1146 62.8602 74.394 63.0503 74.6094 63.3202C74.8248 63.59 74.9667 63.9277 75.0172 64.2908L76.8517 77.392C77.1188 79.3054 77.0243 81.2633 76.5748 83.1302C76.1254 84.9972 75.3316 86.7286 74.2485 88.2048C73.1653 89.6811 71.8186 90.8669 70.3015 91.6802C68.7844 92.4935 67.1331 92.915 65.4617 92.9155ZM4.65618 68.4899L3.32698 77.9854C3.13407 79.3649 3.20173 80.7764 3.52529 82.1225C3.84884 83.4687 4.42057 84.7172 5.20097 85.782C5.98136 86.8468 6.9518 87.7023 8.04523 88.2895C9.13865 88.8767 10.329 89.1816 11.5339 89.183H65.4585C66.6635 89.1816 67.8538 88.8767 68.9472 88.2895C70.0406 87.7023 71.0111 86.8468 71.7915 85.782C72.5719 84.7172 73.1436 83.4687 73.4672 82.1225C73.7907 80.7764 73.8584 79.3649 73.6655 77.9854L72.3363 68.4862C70.3503 70.2076 67.9346 71.1314 65.4553 71.1176H49.0639V75.0927C49.0639 75.5877 48.8944 76.0624 48.5926 76.4124C48.2908 76.7624 47.8815 76.959 47.4547 76.959H29.5442C29.1174 76.959 28.7081 76.7624 28.4063 76.4124C28.1045 76.0624 27.935 75.5877 27.935 75.0927V71.1176H11.5372C9.05819 71.1324 6.64257 70.21 4.65618 68.4899Z" fill="#FFA318"/>
<path d="M65.4654 70.8479H47.4567C47.0298 70.8479 46.6205 70.6538 46.3187 70.3084C46.0169 69.963 45.8473 69.4945 45.8473 69.006V64.4012H31.1538V69.006C31.1538 69.4945 30.9843 69.963 30.6825 70.3084C30.3806 70.6538 29.9713 70.8479 29.5445 70.8479H11.5357C9.86463 70.8439 8.21418 70.4252 6.69808 69.6209C5.18198 68.8165 3.83629 67.6454 2.75372 66.1885C1.67115 64.7315 0.877445 63.0232 0.427302 61.1814C-0.022841 59.3395 -0.118722 57.4078 0.146263 55.5195L5.13528 33.177C5.6219 30.9947 6.73008 29.0602 8.28469 27.6792C9.8393 26.2982 11.7517 25.5496 13.7196 25.5515H63.2847C65.2527 25.5496 67.1651 26.2982 68.7197 27.6792C70.2743 29.0602 71.3825 30.9947 71.8691 33.177L76.8291 55.3574C77.1175 57.2548 77.0402 59.2014 76.6026 61.061C76.165 62.9206 75.3778 64.6484 74.2959 66.1235C73.214 67.5985 71.8636 68.7853 70.3391 69.6007C68.8147 70.4161 67.153 70.8405 65.4703 70.8442L65.4654 70.8479ZM49.066 67.1641H65.4654C66.7648 67.1734 68.0475 66.8286 69.2075 66.1582C70.3674 65.4879 71.3714 64.5112 72.1362 63.3089L72.1459 63.2979C72.8138 62.2821 73.294 61.1215 73.5574 59.8865C73.8208 58.6515 73.8618 57.3681 73.678 56.1144L68.7469 34.0943C68.4373 32.7033 67.7309 31.4704 66.7398 30.5909C65.7486 29.7114 64.5293 29.2356 63.2751 29.239H13.7164C12.4622 29.2356 11.2429 29.7114 10.2517 30.5909C9.26054 31.4704 8.55417 32.7033 8.24457 34.0943L3.29417 56.2747C3.12854 57.6262 3.21763 59.0027 3.55546 60.3115C3.89329 61.6204 4.47203 62.8313 5.25277 63.8629C6.03351 64.8945 6.99816 65.7228 8.08188 66.2922C9.1656 66.8616 10.3433 67.1589 11.5357 67.1641H27.9351V62.5593C27.9351 62.0708 28.1047 61.6023 28.4065 61.2569C28.7083 60.9114 29.1176 60.7174 29.5445 60.7174H47.4567C47.8835 60.7174 48.2928 60.9114 48.5947 61.2569C48.8965 61.6023 49.066 62.0708 49.066 62.5593V67.1641Z" fill="#FFA318"/>
<path d="M56.3335 27.8745H56.2935C56.0835 27.8686 55.8765 27.8157 55.6845 27.7188C55.4924 27.6219 55.319 27.4829 55.1742 27.3098C55.0294 27.1367 54.916 26.9328 54.8405 26.7098C54.7651 26.4868 54.7289 26.2491 54.7342 26.0103L54.7966 23.082C54.8462 20.5293 54.4513 17.9906 53.6348 15.6121C52.8182 13.2336 51.5961 11.0623 50.0388 9.223C48.5712 7.47651 46.8106 6.08238 44.8611 5.12302C42.9116 4.16366 40.8128 3.65855 38.6887 3.63755H38.2985C36.1762 3.66055 34.0796 4.16698 32.1323 5.12694C30.1851 6.0869 28.4268 7.48091 26.9612 9.22663C25.4044 11.0652 24.1825 13.2357 23.366 15.6132C22.5495 17.9907 22.1543 20.5284 22.2033 23.0802L22.2657 26.0103C22.271 26.2491 22.2349 26.4868 22.1594 26.7098C22.0839 26.9328 21.9705 27.1367 21.8257 27.3098C21.6809 27.4829 21.5075 27.6219 21.3155 27.7188C21.1234 27.8157 20.9165 27.8686 20.7064 27.8745H20.6664C20.2494 27.8747 19.8488 27.6896 19.55 27.3586C19.2513 27.0277 19.078 26.5772 19.0672 26.103L19.0048 23.1675C18.9467 20.1331 19.4169 17.1155 20.3882 14.2884C21.3596 11.4614 22.8129 8.88071 24.6646 6.6949C26.4257 4.59937 28.5387 2.92709 30.8784 1.7771C33.2181 0.627115 35.7369 0.0228163 38.2857 0H38.7015C41.2526 0.0217554 43.7739 0.625871 46.1159 1.77652C48.4578 2.92717 50.5728 4.60093 52.3353 6.69854C54.1872 8.88457 55.6407 11.4655 56.612 14.2929C57.5834 17.1203 58.0535 20.1382 57.9952 23.173L57.9328 26.1067C57.9211 26.5802 57.7475 27.0298 57.4488 27.3599C57.1502 27.6901 56.75 27.8747 56.3335 27.8745Z" fill="#FFA318"/>
</svg>
