<svg width="159" height="63" viewBox="0 0 159 63" fill="none" xmlns="http://www.w3.org/2000/svg">
<path d="M67.7988 46.9688L72.1055 28.4062H77.8711L70.4883 54H65.1094L57.7793 28.4062H63.5098L67.7988 46.9688ZM86.9414 54.3516C84.3867 54.3516 82.3945 53.5898 80.9648 52.0664C79.5352 50.543 78.8203 48.3633 78.8203 45.5273V44.0156C78.8203 41.0156 79.4766 38.7012 80.7891 37.0723C82.1016 35.4434 83.9824 34.6289 86.4316 34.6289C88.8223 34.6289 90.6211 35.3965 91.8281 36.9316C93.0352 38.4551 93.6504 40.7168 93.6738 43.7168V46.1602H83.7773C83.8477 47.5664 84.1582 48.5977 84.709 49.2539C85.2598 49.8984 86.1094 50.2207 87.2578 50.2207C88.9219 50.2207 90.3105 49.6523 91.4238 48.5156L93.375 51.5215C92.7656 52.3652 91.8809 53.0508 90.7207 53.5781C89.5605 54.0938 88.3008 54.3516 86.9414 54.3516ZM83.8125 42.6797H88.7871V42.2227C88.7637 41.0859 88.5762 40.2246 88.2246 39.6387C87.873 39.0527 87.2637 38.7598 86.3965 38.7598C85.5293 38.7598 84.8965 39.0703 84.498 39.6914C84.1113 40.3125 83.8828 41.3086 83.8125 42.6797ZM105.873 39.7793L104.221 39.6387C102.861 39.6387 101.941 40.2363 101.461 41.4316V54H96.4688V34.9805H101.162L101.303 37.0371C102.088 35.4316 103.172 34.6289 104.555 34.6289C105.117 34.6289 105.574 34.7051 105.926 34.8574L105.873 39.7793ZM107.227 43.875C107.227 40.9922 107.906 38.7305 109.266 37.0898C110.625 35.4492 112.506 34.6289 114.908 34.6289C117.334 34.6289 119.227 35.4492 120.586 37.0898C121.945 38.7305 122.625 41.0039 122.625 43.9102V45.123C122.625 48.0176 121.951 50.2793 120.604 51.9082C119.256 53.5371 117.369 54.3516 114.943 54.3516C112.506 54.3516 110.607 53.5371 109.248 51.9082C107.9 50.2676 107.227 47.9941 107.227 45.0879V43.875ZM112.219 45.123C112.219 48.5215 113.127 50.2207 114.943 50.2207C116.619 50.2207 117.521 48.8027 117.65 45.9668L117.668 43.875C117.668 42.1406 117.428 40.8574 116.947 40.0254C116.467 39.1816 115.787 38.7598 114.908 38.7598C114.064 38.7598 113.402 39.1816 112.922 40.0254C112.453 40.8574 112.219 42.1406 112.219 43.875V45.123ZM130.289 34.9805L130.43 36.8613C131.555 35.373 133.025 34.6289 134.842 34.6289C138.111 34.6289 139.793 36.9199 139.887 41.502V54H134.895V41.8711C134.895 40.793 134.73 40.0137 134.402 39.5332C134.086 39.041 133.523 38.7949 132.715 38.7949C131.812 38.7949 131.109 39.2578 130.605 40.1836V54H125.613V34.9805H130.289ZM152.49 54C152.35 53.707 152.209 53.2148 152.068 52.5234C151.178 53.7422 149.971 54.3516 148.447 54.3516C146.854 54.3516 145.529 53.8242 144.475 52.7695C143.432 51.7148 142.91 50.3496 142.91 48.6738C142.91 46.6816 143.543 45.1406 144.809 44.0508C146.086 42.9609 147.92 42.4043 150.311 42.3809H151.822V40.8516C151.822 39.9961 151.676 39.3926 151.383 39.041C151.09 38.6895 150.662 38.5137 150.1 38.5137C148.857 38.5137 148.236 39.2402 148.236 40.6934H143.262C143.262 38.9355 143.918 37.4883 145.23 36.3516C146.555 35.2031 148.225 34.6289 150.24 34.6289C152.326 34.6289 153.938 35.1738 155.074 36.2637C156.223 37.3418 156.797 38.8887 156.797 40.9043V49.8516C156.82 51.4922 157.055 52.7754 157.5 53.7012V54H152.49ZM149.555 50.4492C150.105 50.4492 150.574 50.3379 150.961 50.1152C151.348 49.8926 151.635 49.6289 151.822 49.3242V45.3691H150.627C149.783 45.3691 149.115 45.6387 148.623 46.1777C148.143 46.7168 147.902 47.4375 147.902 48.3398C147.902 49.7461 148.453 50.4492 149.555 50.4492Z" fill="white"/>
<path d="M3.61923 14.2731C6.0687 12.5185 8.65234 11.3877 11.3611 10.139C13.885 8.97615 16.5273 8.50575 19.2609 8.47771C23.467 8.43594 27.226 9.49406 31.0178 11.2635C31.6142 11.5416 32.6825 11.9359 33.297 11.8569C33.0005 10.04 31.6847 8.66026 30.3351 7.73777C27.8585 6.04673 25.0534 5.16315 22.1399 4.90563C17.9705 4.53766 14.0051 5.19805 10.1733 6.9635C4.9553 9.40364 3.21051 12.7285 2.8982 13.916C2.68454 14.7314 3.31932 14.5311 3.61923 14.2731Z" fill="white"/>
<path d="M8.47815 19.3576C11.4885 16.3761 14.9263 14.5037 18.8725 13.1222C19.492 12.9042 20.5327 12.4401 20.9222 11.9513C19.4712 10.8463 17.5815 10.7719 15.9782 11.0529C13.036 11.5674 10.4073 12.8973 8.12637 14.756C4.86285 17.4142 2.71217 20.6733 1.14608 24.6373C-0.76783 29.5554 0.223796 34.1988 0.532165 34.7676C0.911565 35.4686 1.09929 34.715 1.11959 34.5198C1.69461 31.5326 2.79222 28.903 3.89997 26.0995C4.93163 23.4882 6.52139 21.2953 8.47815 19.3576Z" fill="white"/>
<path d="M9.59101 42.86C8.5137 40.2693 8.12133 37.5751 8.16643 34.8002C8.2369 30.5316 9.38073 26.745 11.2247 22.9434C11.5139 22.3465 11.9311 21.2724 11.8697 20.6475C10.0724 20.8998 8.67887 22.1972 7.73404 23.5426C6.00221 26.0107 5.05738 28.8332 4.7259 31.7826C4.25235 36.0031 4.98522 39.8556 6.62121 43.7899C8.67323 48.6484 12.5969 51.2385 13.2102 51.4228C13.9657 51.6494 13.5767 50.981 13.4555 50.8271C11.7924 48.2954 10.7484 45.6429 9.59101 42.86Z" fill="white"/>
<path d="M35.4545 53.5408C32.4773 53.1854 29.8097 52.2743 26.9729 51.3656C24.3301 50.5192 22.0543 49.0777 20.0028 47.2435C16.8458 44.4223 14.6568 41.0848 12.9994 37.1951C12.7395 36.5851 12.1859 34.9249 11.7834 34.9398C10.6069 34.6691 10.8786 38.6807 11.276 40.2825C12.005 43.2211 13.5102 45.7808 15.5086 47.9486C18.3685 51.0497 21.7335 52.9794 25.7457 54.2635C30.7224 55.8264 35.207 54.4707 35.7431 54.1153C36.4021 53.6781 35.6484 53.5453 35.4545 53.5408Z" fill="white"/>
<path d="M51.3188 39.7154C48.986 41.6285 46.479 42.9253 43.8559 44.3496C41.4121 45.6762 38.8048 46.32 36.0791 46.5283C31.8848 46.8476 28.004 46.1014 24.1063 44.5848C23.4941 44.3468 21.9387 43.588 21.667 43.8901C20.6533 44.5551 23.6694 47.1618 25.0754 47.9938C27.6545 49.5195 30.5104 50.2165 33.434 50.2812C37.6181 50.3739 41.3287 49.2814 45.0392 47.2676C49.6197 44.7497 51.8008 40.5458 51.9254 39.9083C52.0776 39.1243 51.4575 39.5787 51.3188 39.7154Z" fill="white"/>
<path d="M53.3595 19.8503C52.961 19.1601 52.7935 19.9184 52.7794 20.1141C52.2828 23.1156 51.2545 25.775 50.2206 28.6065C49.2577 31.2441 47.7272 33.4811 45.8217 35.4703C42.8908 38.5325 39.4982 40.5869 35.5909 42.0765C34.9775 42.3095 33.3173 42.7879 33.3105 43.197C32.9881 44.3771 36.9472 44.2998 38.5426 43.9759C41.469 43.3813 44.0628 41.9815 46.2941 40.0616C49.486 37.3136 51.5505 33.9979 53.0117 29.9926C54.7959 25.0259 53.6837 20.4111 53.3595 19.8503Z" fill="white"/>
<path d="M44.2224 11.9677C45.342 14.5423 45.7777 17.2285 45.7755 20.004C45.7727 24.2731 44.7489 28.1468 42.9658 31.9781C42.6867 32.5784 41.8236 34.096 42.0999 34.3948C42.6766 35.4701 45.466 32.615 46.3872 31.2542C48.0801 28.7597 48.9815 25.9206 49.2645 22.966C49.671 18.7381 48.8772 14.8988 47.1781 10.9914C45.0488 6.16487 41.084 3.6406 40.4678 3.46606C39.7073 3.25203 40.1082 3.91472 40.2322 4.06522C41.9353 6.57003 43.021 9.20532 44.2224 11.9677Z" fill="white"/>
<path d="M19.3618 1.27228C22.3226 1.75241 24.9508 2.77448 27.7475 3.80113C30.3548 4.75738 32.5703 6.29277 34.5457 8.20987C37.5865 11.1605 39.6369 14.5878 41.1353 18.5421C41.371 19.163 41.8558 20.8444 42.2589 20.8472C43.423 21.1665 43.3142 17.1469 42.9821 15.5303C42.3733 12.5637 40.9735 9.94269 39.0635 7.69425C36.3333 4.4764 33.049 2.40651 29.0926 0.955818C24.1846 -0.814202 19.6482 0.353222 19.098 0.685136C18.4209 1.09545 19.1684 1.25969 19.3618 1.27228Z" fill="white"/>
</svg>
