<svg width="80" height="80" viewBox="0 0 80 80" fill="none" xmlns="http://www.w3.org/2000/svg">
<g clip-path="url(#clip0)">
<path d="M76.3555 65.9358C76.0568 65.6724 75.741 65.394 75.4097 65.0996L62.2844 53.4397C59.9325 51.3467 58.4218 51.4547 56.1352 51.618C55.972 51.6297 55.8025 51.6417 55.6267 51.6536C43.7698 52.4393 38.7486 50.7785 32.3788 39.3985C30.8593 36.6852 29.6076 33.6994 28.2825 30.5385C24.6463 21.8649 20.8868 12.8964 11.071 8.25649C9.52921 7.42832 8.20034 7.26225 7.12003 7.76296C5.9566 8.30226 5.56619 9.40039 5.46417 9.7733C4.99861 11 4.31996 12.431 3.60225 13.9446C2.00951 17.3033 0.20414 21.1103 0.0415066 24.2134C-0.0450436 25.833 -0.0309831 27.4805 0.410985 28.977C2.50756 41.1529 3.86159 57.4738 3.86159 70.5859C3.86159 71.6495 4.72693 72.5148 5.79053 72.5148H10.9896C12.0507 72.5148 12.9142 71.6495 12.9142 70.5859V57.5171C12.9142 53.5188 14.0369 49.8118 15.3368 45.5195C15.3426 45.5002 15.3485 45.4806 15.3543 45.4613C18.1338 48.7337 21.0404 52.618 24.0036 57.4531C25.5957 60.051 29.1299 66.745 29.272 67.0303C30.5 69.4934 31.2411 70.9802 33.0512 71.7707C34.6925 72.4876 36.9911 72.5194 41.6214 72.5194H52.0682C52.7152 72.5194 53.2399 71.9947 53.2399 71.3476C53.2399 70.7006 52.7152 70.1759 52.0682 70.1759H41.6214C37.4379 70.1759 35.1984 70.1514 33.989 69.6231C33.0087 69.1948 32.5503 68.3537 31.3692 65.9847C31.2253 65.6961 27.9802 59.5232 26.5201 57.0986C19.592 45.5944 12.8322 39.0615 7.65308 34.0561C6.22188 32.6728 4.87004 31.3665 3.6613 30.1001C2.41336 28.7947 2.24697 26.8526 2.38133 24.337C2.51975 21.6955 4.21966 18.111 5.71929 14.9483C6.08033 14.1872 6.43091 13.447 6.75414 12.7349L14.9473 26.7106C15.1654 27.0826 15.5571 27.2899 15.9592 27.2899C16.1606 27.2899 16.3645 27.238 16.5507 27.1288C17.1089 26.8015 17.2962 26.0836 16.9689 25.5254L7.89992 10.0553C7.95382 9.98999 8.02052 9.92859 8.10551 9.88907C8.27689 9.80955 8.80385 9.69347 9.98431 10.3329C10.0035 10.3432 10.0231 10.3532 10.0429 10.3624C19.066 14.615 22.6527 23.1705 26.1211 31.4444C27.4728 34.6687 28.7494 37.7142 30.3339 40.5433C33.8607 46.844 37.0547 50.3503 41.0135 52.2676C44.6395 54.0237 48.8213 54.3299 53.8681 54.1C48.6446 56.5388 44.8362 57.6366 41.469 56.9758C37.2615 56.1506 33.341 52.4614 27.9413 44.2464L19.7062 30.1937C19.3789 29.6353 18.661 29.4482 18.1028 29.7751C17.5445 30.1023 17.3572 30.8201 17.6843 31.3785L25.9345 45.4571C25.9445 45.4743 25.9552 45.4913 25.9661 45.508C31.7585 54.3259 36.1193 58.3147 41.0178 59.2755C41.8201 59.4328 42.6325 59.5093 43.467 59.5093C47.7031 59.5093 52.4868 57.5317 59.1373 54.1099C59.6186 54.301 60.1003 54.6333 60.7272 55.1912L73.8533 66.8517C74.1869 67.1481 74.505 67.4284 74.8057 67.6936C75.7598 68.5348 76.7373 69.3967 77.2721 69.9708C75.9694 70.1716 73.2465 70.1716 72.0897 70.1716H57.6352C56.9881 70.1716 56.4635 70.6962 56.4635 71.3433C56.4635 71.9904 56.9881 72.515 57.6352 72.515H72.0897C77.6587 72.515 79.3571 72.3053 79.8815 70.9174C80.4124 69.5126 79.141 68.3917 76.3555 65.9358ZM10.5708 70.1714H6.20469C6.20188 68.8668 6.18719 67.5423 6.16235 66.204H10.5709V70.1714H10.5708ZM6.02487 35.7413C8.34688 37.9854 10.872 40.426 13.5338 43.3805C13.3865 43.8728 13.2393 44.3607 13.0942 44.8402C11.7965 49.1247 10.5709 53.1718 10.5709 57.5171V63.8607H6.10783C5.82365 53.6391 4.9205 42.7558 3.48539 33.2642C4.29543 34.0695 5.145 34.891 6.02487 35.7413Z" fill="#FFA318"/>
</g>
<defs>
<clipPath id="clip0">
<rect width="80" height="80" fill="white"/>
</clipPath>
</defs>
</svg>
