<svg width="80" height="80" viewBox="0 0 80 80" fill="none" xmlns="http://www.w3.org/2000/svg">
<path d="M79.5683 23.1584C79.5499 23.139 79.5308 23.1199 79.5114 23.1015L62.9973 8.42404C62.8466 8.28668 62.6708 8.18013 62.4793 8.11008L50.5332 3.84028C49.7183 3.54437 48.8179 3.96527 48.522 4.78018C48.4686 4.92715 48.4376 5.08119 48.4297 5.23738C48.4297 5.58273 47.9117 13.5415 39.9529 13.6671C31.947 13.5415 31.4447 5.58273 31.429 5.23738C31.3827 4.37165 30.6433 3.70743 29.7776 3.75374C29.6288 3.76179 29.4819 3.79083 29.3412 3.84028L17.4108 8.15718C17.2193 8.22723 17.0435 8.33378 16.8928 8.47113L0.488597 23.1015C-0.139904 23.6986 -0.165413 24.6923 0.431693 25.3208C0.450138 25.3402 0.469171 25.3592 0.488597 25.3777L13.5492 38.5795V74.6845C13.5492 75.5514 14.2521 76.2543 15.119 76.2543H64.8811C65.748 76.2543 66.4508 75.5514 66.4508 74.6845V38.5795L79.5114 25.3777C80.1399 24.7806 80.1654 23.7871 79.5683 23.1584ZM66.4037 34.1057V26.8219C66.4037 25.955 65.7009 25.2521 64.834 25.2521C63.967 25.2521 63.2642 25.955 63.2642 26.8219V73.0363H16.626V26.8219C16.626 25.955 15.9231 25.2521 15.0562 25.2521C14.1893 25.2521 13.4864 25.955 13.4864 26.8219V34.1214L3.83223 24.3416L18.7766 10.9671L28.6034 7.41938C29.8208 13.6918 35.8925 17.7899 42.1649 16.5726C46.7972 15.6735 50.419 12.0516 51.3181 7.41938L61.145 10.9671L76.0422 24.3416L66.4037 34.1057Z" fill="#FFA318"/>
</svg>
